<mxfile host="app.diagrams.net" modified="2022-11-21T02:42:37.539Z" agent="5.0 (Macintosh; Intel Mac OS X 10_15_7) AppleWebKit/537.36 (KHTML, like Gecko) Chrome/107.0.0.0 Safari/537.36" etag="HxmdGGWIS-0EEq4oAc-G" version="20.5.1" type="github">
  <diagram id="P3Zgkzh8Dkk7_CBR3MSJ" name="第 1 页">
    <mxGraphModel dx="823" dy="463" grid="1" gridSize="10" guides="1" tooltips="1" connect="1" arrows="1" fold="1" page="1" pageScale="1" pageWidth="827" pageHeight="1169" math="0" shadow="0">
      <root>
        <mxCell id="0" />
        <mxCell id="1" parent="0" />
        <mxCell id="1TYJ-bC42JLr17HQNcbC-3" style="edgeStyle=orthogonalEdgeStyle;rounded=0;orthogonalLoop=1;jettySize=auto;html=1;" edge="1" parent="1" source="1TYJ-bC42JLr17HQNcbC-1" target="1TYJ-bC42JLr17HQNcbC-2">
          <mxGeometry relative="1" as="geometry" />
        </mxCell>
        <mxCell id="1TYJ-bC42JLr17HQNcbC-4" value="1. 创建证书私钥" style="edgeLabel;html=1;align=center;verticalAlign=middle;resizable=0;points=[];" vertex="1" connectable="0" parent="1TYJ-bC42JLr17HQNcbC-3">
          <mxGeometry x="-0.396" relative="1" as="geometry">
            <mxPoint x="16" as="offset" />
          </mxGeometry>
        </mxCell>
        <mxCell id="1TYJ-bC42JLr17HQNcbC-1" value="证书申请者" style="html=1;verticalLabelPosition=bottom;align=center;labelBackgroundColor=#ffffff;verticalAlign=top;strokeWidth=2;strokeColor=#0080F0;shadow=0;dashed=0;shape=mxgraph.ios7.icons.user;" vertex="1" parent="1">
          <mxGeometry x="487.5" y="241.5" width="30" height="30" as="geometry" />
        </mxCell>
        <mxCell id="1TYJ-bC42JLr17HQNcbC-21" style="edgeStyle=orthogonalEdgeStyle;rounded=0;orthogonalLoop=1;jettySize=auto;html=1;entryX=1;entryY=0.25;entryDx=0;entryDy=0;" edge="1" parent="1" source="1TYJ-bC42JLr17HQNcbC-2" target="1TYJ-bC42JLr17HQNcbC-8">
          <mxGeometry relative="1" as="geometry">
            <Array as="points">
              <mxPoint x="710" y="335" />
            </Array>
          </mxGeometry>
        </mxCell>
        <mxCell id="1TYJ-bC42JLr17HQNcbC-22" value="2. 使用私钥创建证书签名请求" style="edgeLabel;html=1;align=center;verticalAlign=middle;resizable=0;points=[];" vertex="1" connectable="0" parent="1TYJ-bC42JLr17HQNcbC-21">
          <mxGeometry x="0.3031" relative="1" as="geometry">
            <mxPoint x="50" as="offset" />
          </mxGeometry>
        </mxCell>
        <mxCell id="1TYJ-bC42JLr17HQNcbC-2" value="私钥" style="sketch=0;pointerEvents=1;shadow=0;dashed=0;html=1;strokeColor=none;labelPosition=center;verticalLabelPosition=bottom;verticalAlign=top;outlineConnect=0;align=center;shape=mxgraph.office.security.key_permissions;fillColor=#DA4026;" vertex="1" parent="1">
          <mxGeometry x="697.5" y="230" width="25" height="60" as="geometry" />
        </mxCell>
        <mxCell id="1TYJ-bC42JLr17HQNcbC-12" style="edgeStyle=orthogonalEdgeStyle;rounded=0;orthogonalLoop=1;jettySize=auto;html=1;exitX=0.5;exitY=1;exitDx=0;exitDy=0;" edge="1" parent="1" source="1TYJ-bC42JLr17HQNcbC-8" target="1TYJ-bC42JLr17HQNcbC-11">
          <mxGeometry relative="1" as="geometry" />
        </mxCell>
        <mxCell id="1TYJ-bC42JLr17HQNcbC-13" value="3. 将CSR文件提交给CA机构" style="edgeLabel;html=1;align=center;verticalAlign=middle;resizable=0;points=[];" vertex="1" connectable="0" parent="1TYJ-bC42JLr17HQNcbC-12">
          <mxGeometry x="0.0893" y="-1" relative="1" as="geometry">
            <mxPoint as="offset" />
          </mxGeometry>
        </mxCell>
        <mxCell id="1TYJ-bC42JLr17HQNcbC-8" value="证书签名请求" style="shape=image;html=1;verticalAlign=top;verticalLabelPosition=bottom;labelBackgroundColor=#ffffff;imageAspect=0;aspect=fixed;image=https://cdn3.iconfinder.com/data/icons/dompicon-glyph-file-format-2/256/file-csr-format-type-128.png" vertex="1" parent="1">
          <mxGeometry x="472.5" y="320" width="60" height="60" as="geometry" />
        </mxCell>
        <mxCell id="1TYJ-bC42JLr17HQNcbC-15" style="edgeStyle=orthogonalEdgeStyle;rounded=0;orthogonalLoop=1;jettySize=auto;html=1;exitX=0.785;exitY=0.5;exitDx=0;exitDy=0;exitPerimeter=0;" edge="1" parent="1" source="1TYJ-bC42JLr17HQNcbC-11" target="1TYJ-bC42JLr17HQNcbC-14">
          <mxGeometry relative="1" as="geometry" />
        </mxCell>
        <mxCell id="1TYJ-bC42JLr17HQNcbC-16" value="4. CA机构使用自己的私钥将CSR签发为证书" style="edgeLabel;html=1;align=center;verticalAlign=middle;resizable=0;points=[];" vertex="1" connectable="0" parent="1TYJ-bC42JLr17HQNcbC-15">
          <mxGeometry x="-0.2997" y="-1" relative="1" as="geometry">
            <mxPoint x="43" y="-1" as="offset" />
          </mxGeometry>
        </mxCell>
        <mxCell id="1TYJ-bC42JLr17HQNcbC-11" value="" style="shape=mxgraph.cisco.misc.cisco_ca;html=1;pointerEvents=1;dashed=0;fillColor=#036897;strokeColor=#ffffff;strokeWidth=2;verticalLabelPosition=bottom;verticalAlign=top;align=center;outlineConnect=0;" vertex="1" parent="1">
          <mxGeometry x="461" y="500" width="83" height="67" as="geometry" />
        </mxCell>
        <mxCell id="1TYJ-bC42JLr17HQNcbC-17" style="edgeStyle=orthogonalEdgeStyle;rounded=0;orthogonalLoop=1;jettySize=auto;html=1;entryX=-0.031;entryY=0.575;entryDx=0;entryDy=0;entryPerimeter=0;" edge="1" parent="1" source="1TYJ-bC42JLr17HQNcbC-14" target="1TYJ-bC42JLr17HQNcbC-1">
          <mxGeometry relative="1" as="geometry">
            <Array as="points">
              <mxPoint x="340" y="606" />
              <mxPoint x="340" y="259" />
            </Array>
          </mxGeometry>
        </mxCell>
        <mxCell id="1TYJ-bC42JLr17HQNcbC-18" value="5. CA机构将证书下发给证书申请者" style="edgeLabel;html=1;align=center;verticalAlign=middle;resizable=0;points=[];" vertex="1" connectable="0" parent="1TYJ-bC42JLr17HQNcbC-17">
          <mxGeometry x="-0.213" y="-1" relative="1" as="geometry">
            <mxPoint as="offset" />
          </mxGeometry>
        </mxCell>
        <mxCell id="1TYJ-bC42JLr17HQNcbC-14" value="" style="sketch=0;aspect=fixed;html=1;points=[];align=center;image;fontSize=12;image=img/lib/mscae/Certificate.svg;" vertex="1" parent="1">
          <mxGeometry x="720" y="585" width="50" height="42" as="geometry" />
        </mxCell>
      </root>
    </mxGraphModel>
  </diagram>
</mxfile>
